<svg xmlns="http://www.w3.org/2000/svg" xmlns:xlink="http://www.w3.org/1999/xlink" style="display:none">
  <!-- React Icon -->
  <symbol id="react" viewBox="0 0 569 512">
    <g fill="none" fill-rule="evenodd">
      <g transform="translate(-227, -256)" fill="#58C4DC" fill-rule="nonzero">
        <g transform="translate(227, 256)">
          <path d="M285.5,201 C255.400481,201 231,225.400481 231,255.5 C231,285.599519 255.400481,310 285.5,310 C315.599519,310 340,285.599519 340,255.5 C340,225.400481 315.599519,201 285.5,201" id="Path"></path>
          <path d="M568.959856,255.99437 C568.959856,213.207656 529.337802,175.68144 466.251623,150.985214 C467.094645,145.423543 467.85738,139.922107 468.399323,134.521063 C474.621631,73.0415145 459.808523,28.6686204 426.709856,9.5541429 C389.677085,-11.8291748 337.36955,3.69129898 284.479928,46.0162134 C231.590306,3.69129898 179.282771,-11.8291748 142.25,9.5541429 C109.151333,28.6686204 94.3382249,73.0415145 100.560533,134.521063 C101.102476,139.922107 101.845139,145.443621 102.708233,151.02537 C97.4493791,153.033193 92.2908847,155.161486 87.3331099,157.39017 C31.0111824,182.708821 0,217.765415 0,255.99437 C0,298.781084 39.6220545,336.307301 102.708233,361.003527 C101.845139,366.565197 101.102476,372.066633 100.560533,377.467678 C94.3382249,438.947226 109.151333,483.32012 142.25,502.434597 C153.629683,508.887578 166.52439,512.186771 179.603923,511.991836 C210.956328,511.991836 247.567589,495.487529 284.479928,465.972527 C321.372196,495.487529 358.003528,511.991836 389.396077,511.991836 C402.475265,512.183856 415.36922,508.884856 426.75,502.434597 C459.848667,483.32012 474.661775,438.947226 468.439467,377.467678 C467.897524,372.066633 467.134789,366.565197 466.291767,361.003527 C529.377946,336.347457 569,298.761006 569,255.99437 M389.155214,27.1025182 C397.565154,26.899606 405.877839,28.9368502 413.241569,33.0055186 C436.223966,46.2772304 446.540955,82.2775015 441.522965,131.770345 C441.181741,135.143488 440.780302,138.556788 440.298575,141.990165 C414.066922,134.08804 387.205771,128.452154 360.010724,125.144528 C343.525021,103.224055 325.192524,82.7564475 305.214266,63.9661533 C336.586743,39.7116483 366.032313,27.1025182 389.135142,27.1025182 M378.356498,310.205598 C368.204912,327.830733 357.150626,344.919965 345.237759,361.405091 C325.045049,363.479997 304.758818,364.51205 284.459856,364.497299 C264.167589,364.51136 243.888075,363.479308 223.702025,361.405091 C211.820914,344.919381 200.80007,327.83006 190.683646,310.205598 C180.532593,292.629285 171.306974,274.534187 163.044553,255.99437 C171.306974,237.454554 180.532593,219.359455 190.683646,201.783142 C200.784121,184.229367 211.770999,167.201087 223.601665,150.764353 C243.824636,148.63809 264.145559,147.579168 284.479928,147.591877 C304.772146,147.579725 325.051559,148.611772 345.237759,150.68404 C357.109048,167.14607 368.136094,184.201112 378.27621,201.783142 C388.419418,219.363718 397.644825,237.458403 405.915303,255.99437 C397.644825,274.530337 388.419418,292.625022 378.27621,310.205598 M419.724813,290.127366 C426.09516,307.503536 431.324985,325.277083 435.380944,343.334682 C417.779633,348.823635 399.836793,353.149774 381.668372,356.285142 C388.573127,345.871232 395.263781,335.035679 401.740334,323.778483 C408.143291,312.655143 414.144807,301.431411 419.805101,290.207679 M246.363271,390.377981 C258.848032,391.140954 271.593728,391.582675 284.5,391.582675 C297.406272,391.582675 310.232256,391.140954 322.737089,390.377981 C310.880643,404.583418 298.10766,417.997563 284.5,430.534446 C270.921643,417.999548 258.18192,404.585125 246.363271,390.377981 Z M187.311556,356.244986 C169.137286,353.123646 151.187726,348.810918 133.578912,343.334682 C137.618549,325.305649 142.828222,307.559058 149.174827,290.207679 C154.754833,301.431411 160.736278,312.655143 167.239594,323.778483 C173.74291,334.901824 180.467017,345.864539 187.311556,356.285142 M149.174827,221.760984 C142.850954,204.473938 137.654787,186.794745 133.619056,168.834762 C151.18418,163.352378 169.085653,159.013101 187.211197,155.844146 C180.346585,166.224592 173.622478,176.986525 167.139234,188.210257 C160.65599,199.433989 154.734761,210.517173 149.074467,221.760984 M322.616657,121.590681 C310.131896,120.827708 297.3862,120.385987 284.379568,120.385987 C271.479987,120.385987 258.767744,120.787552 246.242839,121.590681 C258.061488,107.383537 270.801211,93.9691137 284.379568,81.4342157 C297.99241,93.9658277 310.765727,107.380324 322.616657,121.590681 Z M401.70019,188.210257 C395.196875,176.939676 388.472767,166.09743 381.527868,155.68352 C399.744224,158.819049 417.734224,163.151949 435.380944,168.654058 C431.331963,186.680673 426.122466,204.426664 419.785029,221.781062 C414.205023,210.55733 408.203506,199.333598 401.720262,188.230335 M127.517179,131.790423 C122.438973,82.3176579 132.816178,46.2973086 155.778503,33.0255968 C163.144699,28.9632474 171.455651,26.9264282 179.864858,27.1225964 C202.967687,27.1225964 232.413257,39.7317265 263.785734,63.9862316 C243.794133,82.7898734 225.448298,103.270812 208.949132,125.204763 C181.761691,128.528025 154.90355,134.14313 128.661281,141.990165 C128.199626,138.556788 127.778115,135.163566 127.456963,131.790423 M98.4529773,182.106474 C101.54406,180.767925 104.695358,179.429376 107.906872,178.090828 C114.220532,204.735668 122.781793,230.7969 133.498624,255.99437 C122.761529,281.241316 114.193296,307.357063 107.8868,334.058539 C56.7434387,313.076786 27.0971497,284.003505 27.0971497,255.99437 C27.0971497,229.450947 53.1907013,202.526037 98.4529773,182.106474 Z M155.778503,478.963143 C132.816178,465.691432 122.438973,429.671082 127.517179,380.198317 C127.838331,376.825174 128.259842,373.431953 128.721497,369.978497 C154.953686,377.878517 181.814655,383.514365 209.009348,386.824134 C225.500295,408.752719 243.832321,429.233234 263.805806,448.042665 C220.069,481.834331 180.105722,492.97775 155.838719,478.963143 M441.502893,380.198317 C446.520883,429.691161 436.203894,465.691432 413.221497,478.963143 C388.974566,493.017906 348.991216,481.834331 305.274481,448.042665 C325.241364,429.232737 343.566681,408.752215 360.050868,386.824134 C387.245915,383.516508 414.107066,377.880622 440.338719,369.978497 C440.820446,373.431953 441.221885,376.825174 441.563109,380.198317 M461.193488,334.018382 C454.869166,307.332523 446.294494,281.231049 435.561592,255.99437 C446.289797,230.744081 454.857778,204.629101 461.173416,177.930202 C512.216417,198.911955 541.942994,227.985236 541.942994,255.99437 C541.942994,284.003505 512.296705,313.076786 461.153344,334.058539" id="Shape"></path>
        </g>
      </g>
    </g>
  </symbol>
  <!-- Node Icon -->
  <symbol id="node" viewBox="0 0 256 292">
    <defs>
      <linearGradient id="a" x1="68.188%" x2="27.823%" y1="17.487%" y2="89.755%"><stop offset="0%" stop-color="#41873F"/><stop offset="32.88%" stop-color="#418B3D"/><stop offset="63.52%" stop-color="#419637"/><stop offset="93.19%" stop-color="#3FA92D"/><stop offset="100%" stop-color="#3FAE2A"/></linearGradient>
      <linearGradient id="c" x1="43.277%" x2="159.245%" y1="55.169%" y2="-18.306%"><stop offset="13.76%" stop-color="#41873F"/><stop offset="40.32%" stop-color="#54A044"/><stop offset="71.36%" stop-color="#66B848"/><stop offset="90.81%" stop-color="#6CC04A"/></linearGradient>
      <linearGradient id="f" x1="-4.389%" x2="101.499%" y1="49.997%" y2="49.997%"><stop offset="9.192%" stop-color="#6CC04A"/><stop offset="28.64%" stop-color="#66B848"/><stop offset="59.68%" stop-color="#54A044"/><stop offset="86.24%" stop-color="#41873F"/></linearGradient>
      <path id="b" d="M134.923 1.832c-4.344-2.443-9.502-2.443-13.846 0L6.787 67.801C2.443 70.244 0 74.859 0 79.745v132.208c0 4.887 2.715 9.502 6.787 11.945l114.29 65.968c4.344 2.444 9.502 2.444 13.846 0l114.29-65.968c4.344-2.443 6.787-7.058 6.787-11.945V79.745c0-4.886-2.715-9.501-6.787-11.944L134.923 1.832Z"/>
      <path id="e" d="M134.923 1.832c-4.344-2.443-9.502-2.443-13.846 0L6.787 67.801C2.443 70.244 0 74.859 0 79.745v132.208c0 4.887 2.715 9.502 6.787 11.945l114.29 65.968c4.344 2.444 9.502 2.444 13.846 0l114.29-65.968c4.344-2.443 6.787-7.058 6.787-11.945V79.745c0-4.886-2.715-9.501-6.787-11.944L134.923 1.832Z"/>
    </defs>
    <path fill="url(#a)" d="M134.923 1.832c-4.344-2.443-9.502-2.443-13.846 0L6.787 67.801C2.443 70.244 0 74.859 0 79.745v132.208c0 4.887 2.715 9.502 6.787 11.945l114.29 65.968c4.344 2.444 9.502 2.444 13.846 0l114.29-65.968c4.344-2.443 6.787-7.058 6.787-11.945V79.745c0-4.886-2.715-9.501-6.787-11.944L134.923 1.832Z"/>
    <mask id="d" fill="#fff"><use xlink:href="#b"/></mask>
    <path fill="url(#c)" d="M249.485 67.8 134.65 1.833c-1.086-.542-2.443-1.085-3.529-1.357L2.443 220.912c1.086 1.357 2.444 2.443 3.8 3.258l114.834 65.968c3.258 1.9 7.059 2.443 10.588 1.357L252.47 70.515c-.815-1.086-1.9-1.9-2.986-2.714Z" mask="url(#d)"/>
    <mask id="g" fill="#fff"><use xlink:href="#e"/></mask>
    <path fill="url(#f)" d="M249.756 223.898c3.258-1.9 5.701-5.158 6.787-8.687L130.579.204c-3.258-.543-6.787-.272-9.773 1.628L6.786 67.53l122.979 224.238c1.628-.272 3.529-.815 5.158-1.63l114.833-66.239Z" mask="url(#g)"/>
  </symbol>
  <!-- JavaScript Icon -->
  <symbol id="javascript" viewBox="0 0 256 256">
    <g>
        <path d="M0,0 L256,0 L256,256 L0,256 L0,0 Z" fill="#F7DF1E">

    </path>
        <path d="M67.311746,213.932292 L86.902654,202.076241 C90.6821079,208.777346 94.1202286,214.447137 102.367086,214.447137 C110.272203,214.447137 115.256076,211.354819 115.256076,199.326883 L115.256076,117.528787 L139.313575,117.528787 L139.313575,199.666997 C139.313575,224.58433 124.707759,235.925943 103.3984,235.925943 C84.1532952,235.925943 72.9819429,225.958603 67.3113397,213.93026" fill="#000000">

    </path>
        <path d="M152.380952,211.354413 L171.969422,200.0128 C177.125994,208.433981 183.827911,214.619835 195.684368,214.619835 C205.652521,214.619835 212.009041,209.635962 212.009041,202.762159 C212.009041,194.513676 205.479416,191.592025 194.481168,186.78207 L188.468419,184.202565 C171.111213,176.81473 159.597308,167.53534 159.597308,147.944838 C159.597308,129.901308 173.344508,116.153295 194.825752,116.153295 C210.119924,116.153295 221.117765,121.48094 229.021663,135.400432 L210.29059,147.428775 C206.166146,140.040127 201.699556,137.119289 194.826159,137.119289 C187.78047,137.119289 183.312254,141.587098 183.312254,147.428775 C183.312254,154.646349 187.78047,157.568406 198.089956,162.036622 L204.103924,164.614095 C224.553448,173.378641 236.067352,182.313448 236.067352,202.418387 C236.067352,224.071924 219.055137,235.927975 196.200432,235.927975 C173.860978,235.927975 159.425829,225.274311 152.381359,211.354413" fill="#000000">

    </path>
    </g>
  </symbol>
  <!-- TypeScript Icon -->
  <symbol id="typescript" viewBox="0 0 256 256">
    <rect width="256" height="256" rx="20" fill="#3178C6"/>
    <path d="M150.518 200.475v27.62c4.492 2.302 9.805 4.028 15.938 5.179 6.133 1.151 12.597 1.726 19.393 1.726 6.622 0 12.914-.633 18.874-1.899 5.96-1.266 11.187-3.352 15.678-6.257 4.492-2.906 8.048-6.704 10.669-11.394 2.62-4.689 3.93-10.486 3.93-17.391 0-5.006-.749-9.394-2.246-13.163a30.748 30.748 0 0 0-6.479-10.055c-2.821-2.935-6.205-5.567-10.149-7.898-3.945-2.33-8.394-4.531-13.347-6.602-3.628-1.497-6.881-2.949-9.761-4.359-2.879-1.41-5.327-2.848-7.342-4.316-2.016-1.467-3.571-3.021-4.665-4.661-1.094-1.64-1.641-3.495-1.641-5.567 0-1.899.489-3.61 1.468-5.135s2.362-2.834 4.147-3.927c1.785-1.094 3.973-1.942 6.565-2.547 2.591-.604 5.471-.906 8.638-.906 2.304 0 4.737.173 7.299.518 2.563.345 5.14.877 7.732 1.597a53.669 53.669 0 0 1 7.558 2.719 41.7 41.7 0 0 1 6.781 3.797v-25.807c-4.204-1.611-8.797-2.805-13.778-3.582-4.981-.777-10.697-1.165-17.147-1.165-6.565 0-12.784.705-18.658 2.115-5.874 1.409-11.043 3.61-15.506 6.602-4.463 2.993-7.99 6.805-10.582 11.437-2.591 4.632-3.887 10.17-3.887 16.615 0 8.228 2.375 15.248 7.127 21.06 4.751 5.811 11.963 10.731 21.638 14.759a291.458 291.458 0 0 1 10.625 4.575c3.283 1.496 6.119 3.049 8.509 4.66 2.39 1.611 4.276 3.366 5.658 5.265 1.382 1.899 2.073 4.057 2.073 6.474a9.901 9.901 0 0 1-1.296 4.963c-.863 1.524-2.174 2.848-3.93 3.97-1.756 1.122-3.945 1.999-6.565 2.632-2.62.633-5.687.95-9.2.95-5.989 0-11.92-1.05-17.794-3.151-5.875-2.1-11.317-5.25-16.327-9.451Zm-46.036-68.733H140V109H41v22.742h35.345V233h28.137V131.742Z" fill="#FFF"/>
  </symbol>

  <symbol id="html" viewBox="0 0 452 520">
    <path fill="#e34f26" d="M41 460L0 0h451l-41 460-185 52" />
    <path fill="#ef652a" d="M226 472l149-41 35-394H226" />
    <path fill="#ecedee" d="M226 208h-75l-5-58h80V94H84l15 171h127zm0 147l-64-17-4-45h-56l7 89 117 32z"/>
    <path fill="#fff" d="M226 265h69l-7 73-62 17v59l115-32 16-174H226zm0-171v56h136l5-56z"/>
  </symbol>
  
  <!-- CSS Icon -->
  <symbol id="css" viewBox="0 0 1000 1000">
    <path fill="#639" d="M0 0h840a160 160 0 0 1 160 160v680a160 160 0 0 1-160 160H160A160 160 0 0 1 0 840V0Z"/>
    <path fill="#fff" d="M816.54 919.9c-32.39 0-57.16-9.42-74.5-28.35-17.15-19.03-26.08-46.18-26.88-81.64h69.8c.4 31.36 11.42 47.08 33.08 47.08 11.04 0 18.86-3.5 23.37-10.42 4.41-6.9 6.72-17.93 6.72-33.05 0-12.02-3.01-22.04-8.83-29.95a73.2 73.2 0 0 0-29.48-21.14L783.95 750c-23.06-11.02-39.81-24.04-50.14-39.27-10.03-15.13-15.04-36.36-15.04-63.5 0-30.36 8.83-55 26.37-73.94 18.05-18.93 42.62-28.34 74-28.34 30.3 0 53.76 9.31 70.3 27.84 16.85 18.64 25.67 45.28 26.38 80.14h-67.19c.4-11.4-1.9-22.72-6.72-33.06-3.8-7.6-11.23-11.41-22.26-11.41-19.65 0-29.48 11.71-29.48 35.05 0 11.83 2.4 21.04 7.22 28.05A65.18 65.18 0 0 0 822.76 689l24.77 10.92c25.57 11.72 44.02 26.05 55.35 43.38 11.43 17.23 17.05 40.27 17.05 69.12 0 34.56-9.03 61.1-27.38 79.63-18.25 18.53-43.62 27.85-76 27.85Zm-225.42 0c-32.4 0-57.16-9.42-74.51-28.35-17.15-19.03-26.07-46.18-26.87-81.64h69.79c.4 31.36 11.43 47.08 33.1 47.08 11.02 0 18.84-3.5 23.25-10.42 4.52-6.9 6.72-17.93 6.72-33.05 0-12.02-2.9-22.04-8.72-29.95a73.2 73.2 0 0 0-29.48-21.14L558.53 750c-23.07-11.02-39.81-24.04-50.14-39.27-10.03-15.13-15.04-36.36-15.04-63.5 0-30.36 8.82-55 26.37-73.94 18.05-18.93 42.62-28.34 74-28.34 30.29 0 53.75 9.31 70.2 27.84 17.05 18.64 25.77 45.28 26.47 80.14h-67.18c.4-11.4-1.9-22.72-6.72-33.06-3.81-7.6-11.23-11.41-22.26-11.41-19.66 0-29.49 11.71-29.49 35.05 0 11.83 2.41 21.04 7.22 28.05A65.18 65.18 0 0 0 597.33 689l24.77 10.92c25.57 11.72 44.02 26.05 55.36 43.38 11.33 17.23 17.04 40.27 17.04 69.12 0 34.56-9.12 61.1-27.37 79.63-18.25 18.53-43.62 27.85-76.01 27.85Zm-234.75 0c-31.7 0-56.86-8.62-75.51-25.85-18.65-17.12-27.88-42.87-27.88-76.93V648.83c0-33.85 9.83-59.5 29.48-77.13 19.96-17.43 46.13-26.24 78.52-26.24 31.39 0 56.15 9.01 74.5 26.84 18.56 17.93 27.88 44.58 27.88 80.14v13.32h-73.9v-12.92c0-13.72-3.01-23.84-8.83-30.45a26.46 26.46 0 0 0-21.66-10.32c-12.03 0-20.55 4.1-25.37 12.42a79.04 79.04 0 0 0-6.72 36.66v146.26c0 30.55 10.74 46.08 32.1 46.38 10.02 0 17.54-3.61 22.76-10.82a51.74 51.74 0 0 0 7.72-30.46V801.6h73.9v11.42c0 23.74-4.61 43.57-13.94 59.4a88.8 88.8 0 0 1-38.2 35.66 121.46 121.46 0 0 1-54.85 11.82Z"/>
  </symbol>
  <!-- Instagram Icon -->
  <symbol id="instagram" viewBox="0 0 256 256">
    <path fill="#fff" d="M128 23.064c34.177 0 38.225.13 51.722.745 12.48.57 19.258 2.655 23.769 4.408 5.974 2.322 10.238 5.096 14.717 9.575 4.48 4.479 7.253 8.743 9.575 14.717 1.753 4.511 3.838 11.289 4.408 23.768.615 13.498.745 17.546.745 51.723 0 34.178-.13 38.226-.745 51.723-.57 12.48-2.655 19.257-4.408 23.768-2.322 5.974-5.096 10.239-9.575 14.718-4.479 4.479-8.743 7.253-14.717 9.574-4.511 1.753-11.289 3.839-23.769 4.408-13.495.616-17.543.746-51.722.746-34.18 0-38.228-.13-51.723-.746-12.48-.57-19.257-2.655-23.768-4.408-5.974-2.321-10.239-5.095-14.718-9.574-4.479-4.48-7.253-8.744-9.574-14.718-1.753-4.51-3.839-11.288-4.408-23.768-.616-13.497-.746-17.545-.746-51.723 0-34.177.13-38.225.746-51.722.57-12.48 2.655-19.258 4.408-23.769 2.321-5.974 5.095-10.238 9.574-14.717 4.48-4.48 8.744-7.253 14.718-9.575 4.51-1.753 11.289-3.838 23.768-4.408 13.497-.615 17.545-.745 51.723-.745M128 0C93.237 0 88.878.147 75.226.77c-13.625.622-22.93 2.786-31.071 5.95-8.418 3.271-15.556 7.648-22.672 14.764C14.367 28.6 9.991 35.738 6.72 44.155 3.555 52.297 1.392 61.602.77 75.226.147 88.878 0 93.237 0 128c0 34.763.147 39.122.77 52.774.622 13.625 2.785 22.93 5.95 31.071 3.27 8.417 7.647 15.556 14.763 22.672 7.116 7.116 14.254 11.492 22.672 14.763 8.142 3.165 17.446 5.328 31.07 5.95 13.653.623 18.012.77 52.775.77s39.122-.147 52.774-.77c13.624-.622 22.929-2.785 31.07-5.95 8.418-3.27 15.556-7.647 22.672-14.763 7.116-7.116 11.493-14.254 14.764-22.672 3.164-8.142 5.328-17.446 5.95-31.07.623-13.653.77-18.012.77-52.775s-.147-39.122-.77-52.774c-.622-13.624-2.786-22.929-5.95-31.07-3.271-8.418-7.648-15.556-14.764-22.672C227.4 14.368 220.262 9.99 211.845 6.72c-8.142-3.164-17.447-5.328-31.071-5.95C167.122.147 162.763 0 128 0Zm0 62.27C91.698 62.27 62.27 91.7 62.27 128c0 36.302 29.428 65.73 65.73 65.73 36.301 0 65.73-29.428 65.73-65.73 0-36.301-29.429-65.73-65.73-65.73Zm0 108.397c-23.564 0-42.667-19.103-42.667-42.667S104.436 85.333 128 85.333s42.667 19.103 42.667 42.667-19.103 42.667-42.667 42.667Zm83.686-110.994c0 8.484-6.876 15.36-15.36 15.36-8.483 0-15.36-6.876-15.36-15.36 0-8.483 6.877-15.36 15.36-15.36 8.484 0 15.36 6.877 15.36 15.36Z"/>
  </symbol>
  <!-- X (Twitter) Icon -->
  <symbol id="x" viewBox="0 0 1200 1227">
    <path fill="#fff" d="M714.163 519.284 1160.89 0h-105.86L667.137 450.887 357.328 0H0l468.492 681.821L0 1226.37h105.866l409.625-476.152 327.181 476.152H1200L714.137 519.284h.026ZM569.165 687.828l-47.468-67.894-377.686-540.24h162.604l304.797 435.991 47.468 67.894 396.2 566.721H892.476L569.165 687.854v-.026Z"/>
  </symbol>
  <!-- YouTube Icon -->
  <symbol id="youtube" viewBox="0 0 256 180">
    <path d="M250.346 28.075A32.18 32.18 0 0 0 227.69 5.418C207.824 0 127.87 0 127.87 0S47.912.164 28.046 5.582A32.18 32.18 0 0 0 5.39 28.24c-6.009 35.298-8.34 89.084.165 122.97a32.18 32.18 0 0 0 22.656 22.657c19.866 5.418 99.822 5.418 99.822 5.418s79.955 0 99.82-5.418a32.18 32.18 0 0 0 22.657-22.657c6.338-35.348 8.291-89.1-.164-123.134Z" fill="red"/>
    <path fill="#FFF" d="m102.421 128.06 66.328-38.418-66.328-38.418z"/>
  </symbol>
  <!-- LinkedIn Icon -->
  <symbol id="linkedin" viewBox="0 0 256 256">
    <path d="M218.123 218.127h-37.931v-59.403c0-14.165-.253-32.4-19.728-32.4-19.756 0-22.779 15.434-22.779 31.369v60.43h-37.93V95.967h36.413v16.694h.51a39.907 39.907 0 0 1 35.928-19.733c38.445 0 45.533 25.288 45.533 58.186l-.016 67.013ZM56.955 79.27c-12.157.002-22.014-9.852-22.016-22.009-.002-12.157 9.851-22.014 22.008-22.016 12.157-.003 22.014 9.851 22.016 22.008A22.013 22.013 0 0 1 56.955 79.27m18.966 138.858H37.95V95.967h37.97v122.16ZM237.033.018H18.89C8.58-.098.125 8.161-.001 18.471v219.053c.122 10.315 8.576 18.582 18.89 18.474h218.144c10.336.128 18.823-8.139 18.966-18.474V18.454c-.147-10.33-8.635-18.588-18.966-18.453"/>
  </symbol>
  <!-- GitHub Icon -->
  <symbol id="github" viewBox="0 0 1024 1024">
    <path fill-rule="evenodd" clip-rule="evenodd" d="M8 0C3.58 0 0 3.58 0 8C0 11.54 2.29 14.53 5.47 15.59C5.87 15.66 6.02 15.42 6.02 15.21C6.02 15.02 6.01 14.39 6.01 13.72C4 14.09 3.48 13.23 3.32 12.78C3.23 12.55 2.84 11.84 2.5 11.65C2.22 11.5 1.82 11.13 2.49 11.12C3.12 11.11 3.57 11.7 3.72 11.94C4.44 13.15 5.59 12.81 6.05 12.6C6.12 12.08 6.33 11.73 6.56 11.53C4.78 11.33 2.92 10.64 2.92 7.58C2.92 6.71 3.23 5.99 3.74 5.43C3.66 5.23 3.38 4.41 3.82 3.31C3.82 3.31 4.49 3.1 6.02 4.13C6.66 3.95 7.34 3.86 8.02 3.86C8.7 3.86 9.38 3.95 10.02 4.13C11.55 3.09 12.22 3.31 12.22 3.31C12.66 4.41 12.38 5.23 12.3 5.43C12.81 5.99 13.12 6.7 13.12 7.58C13.12 10.65 11.25 11.33 9.47 11.53C9.76 11.78 10.01 12.26 10.01 13.01C10.01 14.08 10 14.94 10 15.21C10 15.42 10.15 15.67 10.55 15.59C13.71 14.53 16 11.53 16 8C16 3.58 12.42 0 8 0Z" transform="scale(64)" fill="#fff"/>
  </symbol>
  <!-- Strava Icon -->
  <symbol id="strava" width="512" height="512" style="enable-background:new 0 0 512 512">
    <path d="M226.172 26.001 90.149 288.345h80.141l55.882-104.309 55.433 104.309h79.511z" style="fill:#f50"/><path d="m361.116 288.345-39.441 79.241-40.07-79.241h-60.734l100.804 197.654 100.176-197.654z" style="fill:#ffaf8a"/>
  </symbol>
  <!-- Twitch Icon -->
  <symbol id="twitch" viewBox="0 0 2400 2800">
    <path fill="#fff" d="m2200 1300-400 400h-400l-350 350v-350H600V200h1600z"/>
    <g fill="#9146ff">
      <path d="M500 0 0 500v1800h600v500l500-500h400l900-900V0H500zm1700 1300-400 400h-400l-350 350v-350H600V200h1600v1100z"/>
      <path d="M1700 550h200v600h-200zm-550 0h200v600h-200z"/>
    </g>
  </symbol>
  <!-- Verified Icon -->
  <symbol id="verified" viewBox="0 0 20 20">
    <path fill-rule="evenodd" d="M10 18a8 8 0 100-16 8 8 0 000 16zm3.707-8.707a1 1 0 00-1.414-1.414L9 11.172l-1.293-1.293a1 1 0 00-1.414 1.414l2 2a1 1 0 001.414 0l4-4z" clip-rule="evenodd" />
  </symbol>
  <!-- Python Icon -->
  <symbol id="python" viewBox="0 0 32 32">
    <path fill-rule="evenodd" clip-rule="evenodd"
      d="M13.0164 2C10.8193 2 9.03825 3.72453 9.03825 5.85185V8.51852H15.9235V9.25926H5.97814C3.78107 9.25926 2 10.9838 2 13.1111L2 18.8889C2 21.0162 3.78107 22.7407 5.97814 22.7407H8.27322V19.4815C8.27322 17.3542 10.0543 15.6296 12.2514 15.6296H19.5956C21.4547 15.6296 22.9617 14.1704 22.9617 12.3704V5.85185C22.9617 3.72453 21.1807 2 18.9836 2H13.0164ZM12.0984 6.74074C12.8589 6.74074 13.4754 6.14378 13.4754 5.40741C13.4754 4.67103 12.8589 4.07407 12.0984 4.07407C11.3378 4.07407 10.7213 4.67103 10.7213 5.40741C10.7213 6.14378 11.3378 6.74074 12.0984 6.74074Z"
      fill="url(#paint0_linear_87_8204)"/>

    <path fill-rule="evenodd" clip-rule="evenodd"
      d="M18.9834 30C21.1805 30 22.9616 28.2755 22.9616 26.1482V23.4815L16.0763 23.4815L16.0763 22.7408L26.0217 22.7408C28.2188 22.7408 29.9998 21.0162 29.9998 18.8889V13.1111C29.9998 10.9838 28.2188 9.25928 26.0217 9.25928L23.7266 9.25928V12.5185C23.7266 14.6459 21.9455 16.3704 19.7485 16.3704L12.4042 16.3704C10.5451 16.3704 9.03809 17.8296 9.03809 19.6296L9.03809 26.1482C9.03809 28.2755 10.8192 30 13.0162 30H18.9834ZM19.9015 25.2593C19.1409 25.2593 18.5244 25.8562 18.5244 26.5926C18.5244 27.329 19.1409 27.9259 19.9015 27.9259C20.662 27.9259 21.2785 27.329 21.2785 26.5926C21.2785 25.8562 20.662 25.2593 19.9015 25.2593Z"
      fill="url(#paint1_linear_87_8204)"/>

    <defs>
      <linearGradient id="paint0_linear_87_8204" x1="12.4809" y1="2" x2="12.4809" y2="22.7407" gradientUnits="userSpaceOnUse">
        <stop stop-color="#327EBD"/>
        <stop offset="1" stop-color="#1565A7"/>
      </linearGradient>

      <linearGradient id="paint1_linear_87_8204" x1="19.519" y1="9.25928" x2="19.519" y2="30" gradientUnits="userSpaceOnUse">
        <stop stop-color="#FFDA4B"/>
        <stop offset="1" stop-color="#F9C600"/>
      </linearGradient>
    </defs>
  </symbol>
  <!--Django Icon-->
  <symbol id="django" viewBox="0 0 256 256">
      <g>
          <rect fill="#092E20" x="0" y="0" width="256" height="256" rx="28"></rect>
          <path
              d="M186.377012,94.197636 L186.377012,160.424478 C186.377012,183.243286 184.707519,194.187745 179.699037,203.649406 C175.060358,212.741266 168.937684,218.490548 156.323731,224.798721 L129.794937,212.183571 C142.410087,206.247593 148.531564,201.05481 152.427049,193.074749 C156.509231,184.91278 157.808923,175.451119 157.808923,150.593015 L157.808923,94.197636 L186.377012,94.197636 Z M140.928486,50.0787207 L140.928486,182.316986 C126.272844,185.099476 115.512688,186.212472 103.826231,186.212472 C68.9487718,186.212472 50.7686431,170.445031 50.7686431,140.205054 C50.7686431,111.079269 70.0629644,92.1583404 99.9295492,92.1583404 C104.567032,92.1583404 108.091519,92.5281423 112.359199,93.6411381 L112.359199,50.0787207 L140.928486,50.0787207 Z M102.713236,115.160254 C88.243093,115.160254 79.8944275,124.065418 79.8944275,139.647359 C79.8944275,154.860696 87.8720944,163.208164 102.527736,163.208164 C105.680028,163.208164 108.278215,163.022665 112.359199,162.467364 L112.359199,116.643052 C109.020212,115.531253 106.237722,115.160254 102.713236,115.160254 Z M186.377012,50.2307105 L186.377012,79.5419941 L157.808923,79.5419941 L157.808923,50.2307105 L186.377012,50.2307105 Z"
              fill="#FFFFFD">
          </path>
      </g>
  </symbol>
  <!-- Play Icon -->
  <symbol  id="play" viewBox="0 0 24 24">
    <path d="M21.4086 9.35258C23.5305 10.5065 23.5305 13.4935 21.4086 14.6474L8.59662 21.6145C6.53435 22.736 4 21.2763 4 18.9671L4 5.0329C4 2.72368 6.53435 1.26402 8.59661 2.38548L21.4086 9.35258Z"/>
  </symbol>
  <!-- Bootstrap Icon -->
  <symbol id="bootstrap" viewBox="0 0 48 48">
    <path fill="#7c4dff" d="M7.373,11.443C7.293,9.132,9.094,7,11.529,7h24.946c2.435,0,4.236,2.132,4.155,4.443 c-0.077,2.221,0.023,5.097,0.747,7.443c0.726,2.353,1.951,3.84,3.957,4.031v2.167c-2.006,0.191-3.23,1.678-3.957,4.031 c-0.724,2.345-0.824,5.222-0.747,7.443C40.71,38.868,38.909,41,36.475,41H11.529c-2.434,0-4.236-2.132-4.155-4.443 c0.077-2.221-0.023-5.097-0.747-7.443c-0.726-2.353-1.954-3.84-3.96-4.031v-2.167c2.006-0.191,3.233-1.678,3.96-4.031 C7.35,16.54,7.451,13.664,7.373,11.443z"/>
    <path fill="#fff" d="M27.073,23.464v-0.028c1.853-0.32,3.299-2.057,3.299-3.97c0-1.352-0.52-2.498-1.504-3.312 c-0.981-0.812-2.357-1.241-3.981-1.241H17.45V33.08h7.475c1.942,0,3.555-0.474,4.663-1.372c1.109-0.899,1.696-2.207,1.696-3.783 C31.283,25.544,29.593,23.756,27.073,23.464z M23.59,22.608h-3.181V17.29h3.784c2.076,0,3.219,0.911,3.219,2.565 C27.413,21.63,26.055,22.608,23.59,22.608z M20.409,24.834h3.759c2.716,0,4.092,0.981,4.092,2.916c0,1.932-1.357,2.953-3.925,2.953 h-3.926V24.834z"/>
  </symbol>
  <!-- MySql Icon -->
  <symbol id="mysql" viewBox="0 0 24 24">
    <path fill="#00758F" fill-rule="evenodd" d="M5.46192862,4.04007684 C5.18892668,4.03501656 4.99575061,4.06967946 4.79169495,4.11446291 L4.79169495,4.15152944 L4.82901449,4.15152944 C4.95944313,4.41909158 5.18943271,4.591394 5.35034952,4.82188962 C5.47407329,5.08262038 5.59817658,5.34297163 5.72227987,5.60332288 C5.73493056,5.5909252 5.74745474,5.57865403 5.75959941,5.56625635 C5.99047454,5.40394797 6.0957283,5.14410275 6.09471625,4.74737704 C6.00211318,4.64996671 5.98832392,4.52826705 5.90837155,4.4122602 C5.80235875,4.25754224 5.59615247,4.17012595 5.46192862,4.04007684 L5.46192862,4.04007684 Z M23.478665,23.1369293 C23.6543831,23.2658398 23.772161,23.4657208 24,23.5466852 L24,23.5093657 C23.8800714,23.3573044 23.8495833,23.1474294 23.7395222,22.9880306 C23.5786054,22.8271138 23.4164236,22.6655645 23.2555068,22.5040152 C22.7821179,21.8759083 22.1818425,21.3245911 21.5432356,20.8663831 C21.0345512,20.5006515 19.8944709,20.0072745 19.6819392,19.4148426 C19.6697946,19.4021919 19.6571439,19.3896677 19.6444932,19.3770171 C20.0054174,19.3365348 20.4283301,19.2059797 20.7614228,19.1165393 C21.3210894,18.9665021 21.8214243,19.0054662 22.3990549,18.8560615 C22.6600387,18.781296 22.9203899,18.7066569 23.1808677,18.6329033 L23.1808677,18.4834987 C22.8887632,18.1836773 22.6805328,17.7869515 22.3622414,17.5155942 C21.5283078,16.8061434 20.6188495,16.0966926 19.6818127,15.5056522 C19.1626283,15.1774933 18.5200996,14.9645821 17.969415,14.6865199 C17.7842089,14.5931578 17.4590861,14.5444526 17.3365009,14.3887226 C17.0476856,14.0198284 16.8899314,13.5523853 16.6667732,13.1228943 C16.1997097,12.2230506 15.740363,11.2403448 15.3263059,10.293567 C15.044322,9.6481287 14.8597484,9.01154587 14.5076796,8.43227067 C12.8174206,5.65329311 10.9976185,3.97581132 8.17942382,2.3270466 C7.57927498,1.97649592 6.85742648,1.83809735 6.09471625,1.65719245 C5.68546635,1.6325236 5.27545742,1.60734872 4.86620752,1.58267987 C4.61635635,1.47831166 4.35651113,1.17267094 4.12184079,1.02427832 C3.18796669,0.434503045 0.792811133,-0.848656668 0.10157731,0.838313141 C-0.335124586,1.90286889 0.753847001,2.94174374 1.14361483,3.48142227 C1.4172493,3.85980447 1.76704094,4.2842352 1.96287366,4.70967798 C2.09127818,4.98938478 2.11316388,5.27010364 2.22385744,5.56600333 C2.49432924,6.29518923 2.7293791,7.08838764 3.07929725,7.76241652 C3.25653344,8.10322617 3.45173363,8.46263233 3.67539786,8.76738751 C3.81265788,8.95449125 4.04720171,9.03684725 4.08401522,9.32578906 C3.85465817,9.64749617 3.84150145,10.1466925 3.7125909,10.5541713 C3.13065906,12.3887747 3.35014857,14.6686824 4.19660638,16.0266077 C4.45594557,16.443195 5.06773305,17.3374725 5.90837155,16.9942592 C6.64375629,16.6946908 6.47980332,15.76613 6.69018433,14.9469976 C6.73749792,14.760906 6.70865434,14.624405 6.80176344,14.5003017 L6.80176344,14.5373682 C7.02542767,14.9840642 7.2488389,15.4307601 7.47199711,15.8773296 C7.96815726,16.6759678 8.84826592,17.5111665 9.59415073,18.0739958 C9.98037636,18.3659737 10.2848785,18.8709894 10.7852134,19.0419002 L10.7852134,19.0040746 L10.7478939,19.0040746 C10.6504835,18.8536579 10.4989282,18.790531 10.3759635,18.6694638 C10.0844916,18.3836847 9.76050733,18.0287063 9.51938514,17.7014329 C8.84080201,16.780589 8.24153872,15.7725818 7.69553484,14.7235864 C7.43455106,14.2224925 7.20785066,13.6697838 6.98785512,13.1600874 C6.90322199,12.9633691 6.90423404,12.6662043 6.72737736,12.5643663 C6.48650818,12.9378147 6.13190928,13.2401663 5.94556458,13.6811694 C5.64776729,14.386319 5.60943569,15.2461865 5.49899515,16.1379338 C5.43371758,16.1614641 5.46268766,16.1453977 5.42422956,16.1750003 C4.90555118,16.0502645 4.72350772,15.5164053 4.53096418,15.0584502 C4.04378602,13.9006589 3.95333357,12.0360734 4.38206553,10.7030699 C4.4930121,10.3583386 4.99499157,9.27202362 4.79131543,8.95347919 C4.69441112,8.63544079 4.37510765,8.45187925 4.19635337,8.20885945 C3.97420721,7.90853201 3.75332613,7.5134509 3.59974672,7.16644241 C3.20150293,6.26368901 3.01528474,5.25024206 2.59540827,4.33749461 C2.39451528,3.90142525 2.0550972,3.45966308 1.77627595,3.07166635 C1.46759906,2.64204884 1.12185564,2.32578153 0.882884062,1.80583808 C0.797744903,1.62126448 0.681991069,1.32587082 0.808244978,1.13598393 C0.848094658,1.00783242 0.905022773,0.954446496 1.03190922,0.912572704 C1.24810955,0.746089595 1.84889092,0.967982736 2.07394674,1.06147135 C2.67055338,1.30929841 3.16924367,1.54548684 3.67489184,1.88035066 C3.91740561,2.04126747 4.16295554,2.35272751 4.45607208,2.43887872 L4.79118892,2.43887872 C5.31568662,2.5591868 5.90280525,2.47645128 6.39200751,2.62509691 C7.25744137,2.8881048 8.0329288,3.29722819 8.73719284,3.74202653 C10.8826237,5.09653615 12.6370217,7.02526068 13.8370664,9.32578906 C14.030116,9.69620133 14.1138635,10.0496617 14.2836358,10.4427187 C14.6265961,11.2350315 15.0591233,12.0501156 15.4004389,12.825097 C15.7408691,13.5978013 16.0728232,14.3779695 16.5541821,15.0213837 C16.8071959,15.3594102 17.7850944,15.5408211 18.2297663,15.7288104 C18.5412263,15.8602511 19.0514287,15.9976376 19.3460633,16.1750003 C19.9100312,16.5151775 20.4556556,16.9197466 20.9842015,17.292183 C21.2483479,17.4785277 22.0606489,17.886639 22.1006251,18.2223884 C20.7916579,18.1877255 19.7916207,18.3092986 18.9366869,18.6695903 C18.6936671,18.7716814 18.3064295,18.7747176 18.2664533,19.0787137 C18.4000446,19.2186304 18.4211712,19.4281259 18.527437,19.6000488 C18.7309867,19.9304848 19.0755915,20.3728795 19.3833829,20.6053993 C19.7195118,20.8590456 20.0657612,21.130403 20.4255469,21.3498925 C21.0663045,21.7407989 21.7818276,21.9638306 22.3984224,22.3551165 C22.7632683,22.5861182 23.1241926,22.8764515 23.478665,23.1369293 L23.478665,23.1369293 Z"/>
  </symbol>
  <!-- jQuery -->
  <symbol id="jquery" viewBox="0 0 512 512" fill="#3b6aab">

    <g id="5151e0c8492e5103c096af88a51ef0ed">

    <path display="inline" d="M499.161,364.63c0,0-63.554,171.386-282.354,131.488c-3.443-0.641-6.745-1.838-10.089-2.849   c-0.782-0.229-1.572-0.479-2.354-0.703c-3.285-1.022-6.537-2.07-9.769-3.197c-0.37-0.129-0.723-0.25-1.098-0.383   c-2.944-1.035-5.872-2.134-8.762-3.244c-0.757-0.295-1.51-0.582-2.263-0.89c-3.114-1.23-6.212-2.516-9.277-3.859   c-0.565-0.249-1.11-0.499-1.684-0.752c-2.683-1.193-5.332-2.429-7.959-3.685c-0.682-0.346-1.368-0.666-2.055-0.99   c-0.374-0.187-0.777-0.374-1.16-0.565c-1.696-0.848-3.352-1.729-5.023-2.604c-1.289-0.665-2.599-1.313-3.88-2   c-2.366-1.289-4.699-2.599-7.02-3.938c-0.861-0.491-1.73-0.965-2.583-1.46c-3.152-1.854-6.271-3.78-9.344-5.727   c-0.869-0.557-1.729-1.147-2.586-1.722c-2.004-1.297-4.009-2.595-5.972-3.95c-0.208-0.142-0.407-0.291-0.611-0.437   c-0.761-0.516-1.484-1.044-2.241-1.593c-2.071-1.439-4.121-2.911-6.15-4.408c-0.981-0.74-1.959-1.484-2.932-2.229   c-1.838-1.402-3.667-2.837-5.481-4.284c-0.902-0.723-1.817-1.438-2.719-2.17c-2.212-1.822-4.417-3.677-6.575-5.548   c-0.408-0.357-0.84-0.707-1.256-1.081c-0.042-0.017-0.071-0.05-0.117-0.088c-2.449-2.146-4.853-4.346-7.236-6.591   c-0.719-0.657-1.435-1.36-2.158-2.05c-1.78-1.71-3.543-3.432-5.277-5.178c-0.72-0.707-1.431-1.422-2.121-2.138   c-2.241-2.304-4.454-4.611-6.616-6.97c-0.079-0.107-0.158-0.17-0.253-0.274c-0.038-0.041-0.092-0.096-0.129-0.142   c-2.212-2.437-4.383-4.928-6.508-7.427c-0.595-0.703-1.193-1.422-1.78-2.133c-1.584-1.909-3.144-3.813-4.674-5.743   c-0.636-0.803-1.272-1.613-1.9-2.42c-1.717-2.217-3.414-4.45-5.057-6.721c-0.308-0.424-0.636-0.84-0.932-1.256   c-0.063-0.07-0.116-0.146-0.158-0.216c-1.904-2.633-3.742-5.315-5.547-8.001c-0.561-0.824-1.089-1.672-1.63-2.521   c-1.306-1.987-2.587-3.976-3.826-5.988c-0.648-1.031-1.264-2.066-1.888-3.103c-1.127-1.879-2.229-3.759-3.298-5.655   c-0.611-1.073-1.214-2.121-1.805-3.223c-0.329-0.582-0.686-1.182-1.006-1.792c-0.562-1.016-1.069-2.075-1.618-3.111   c-0.848-1.626-1.709-3.26-2.528-4.915c-34.557-69.094-40.196-153.694,5.048-218.723l35.314-44.789   c-39.843,77.007-21.936,170.778,27.908,238.76c1.8,2.475,3.643,4.916,5.526,7.356c0.583,0.736,1.168,1.477,1.751,2.184   c1.567,1.996,3.168,3.967,4.786,5.918c0.583,0.686,1.152,1.359,1.747,2.066c2.163,2.554,4.375,5.09,6.646,7.564   c0.108,0.12,0.212,0.229,0.316,0.345c2.146,2.342,4.333,4.653,6.558,6.933c0.69,0.698,1.393,1.389,2.096,2.088   c1.747,1.783,3.531,3.514,5.344,5.235c0.686,0.682,1.376,1.339,2.088,2.017c2.449,2.279,4.919,4.545,7.435,6.758   c0.262,0.229,0.532,0.44,0.773,0.652c2.329,2.025,4.687,3.997,7.074,5.96c0.832,0.678,1.68,1.355,2.528,2.029   c1.875,1.509,3.772,2.978,5.681,4.437c0.911,0.699,1.846,1.41,2.791,2.108c2.075,1.539,4.171,3.053,6.288,4.55   c0.719,0.486,1.418,1.015,2.146,1.505c2.188,1.514,4.417,2.986,6.654,4.425c0.84,0.558,1.672,1.14,2.52,1.681   c3.086,1.954,6.205,3.875,9.357,5.73c0.811,0.466,1.622,0.902,2.42,1.352c2.379,1.376,4.762,2.731,7.19,4.029   c1.314,0.731,2.666,1.393,3.996,2.096c1.988,1.023,3.976,2.063,5.988,3.044c0.761,0.374,1.501,0.724,2.246,1.077   c2.566,1.235,5.14,2.425,7.743,3.605c0.616,0.267,1.214,0.545,1.834,0.811c3.032,1.327,6.096,2.6,9.186,3.817   c0.794,0.316,1.589,0.62,2.387,0.937c2.811,1.089,5.643,2.146,8.508,3.156c0.445,0.158,0.89,0.32,1.322,0.478   c3.194,1.099,6.408,2.146,9.648,3.136c0.827,0.258,1.655,0.508,2.503,0.757c3.318,0.981,6.616,2.042,10.018,2.812   C351.039,452.521,445.783,434.173,499.161,364.63z M182.44,254.758c4.907,7.024,10.338,15.386,16.846,21.031   c2.354,2.598,4.824,5.13,7.34,7.621c0.632,0.648,1.285,1.272,1.938,1.908c2.437,2.371,4.932,4.704,7.494,6.97   c0.108,0.079,0.204,0.188,0.308,0.263c0.029,0.033,0.054,0.041,0.075,0.074c2.845,2.487,5.781,4.887,8.758,7.244   c0.662,0.508,1.318,1.036,1.988,1.552c2.99,2.291,6.039,4.545,9.166,6.69c0.096,0.066,0.17,0.134,0.266,0.2   c1.376,0.956,2.782,1.846,4.175,2.761c0.674,0.433,1.31,0.898,1.983,1.306c2.237,1.435,4.496,2.828,6.795,4.167   c0.325,0.2,0.641,0.366,0.961,0.553c1.975,1.14,3.992,2.267,6.005,3.356c0.698,0.391,1.414,0.74,2.129,1.114   c1.389,0.724,2.786,1.468,4.2,2.171c0.212,0.1,0.433,0.199,0.637,0.287c2.882,1.418,5.788,2.79,8.762,4.079   c0.632,0.283,1.289,0.532,1.934,0.799c2.375,1.006,4.77,1.992,7.178,2.915c1.022,0.387,2.059,0.757,3.073,1.127   c2.191,0.815,4.383,1.556,6.595,2.296c1.003,0.319,1.984,0.648,2.986,0.956c3.144,0.973,6.254,2.212,9.535,2.753   C472.501,366.942,511.5,236.873,511.5,236.873c-35.16,50.633-103.243,74.791-175.897,55.936c-3.223-0.849-6.403-1.776-9.56-2.77   c-0.974-0.292-1.922-0.607-2.883-0.928c-2.245-0.728-4.479-1.501-6.694-2.308c-1.011-0.37-2.025-0.74-3.02-1.123   c-2.425-0.932-4.824-1.896-7.198-2.902c-0.653-0.283-1.306-0.533-1.942-0.824c-2.981-1.299-5.917-2.663-8.812-4.094   c-1.493-0.729-2.953-1.499-4.425-2.254c-0.849-0.437-1.701-0.875-2.549-1.312c-1.88-1.021-3.751-2.08-5.594-3.154   c-0.437-0.252-0.894-0.491-1.339-0.755c-2.283-1.339-4.537-2.718-6.77-4.134c-0.687-0.438-1.352-0.915-2.038-1.366   c-1.477-0.954-2.944-1.921-4.392-2.902c-3.11-2.146-6.138-4.399-9.128-6.678c-0.69-0.543-1.376-1.073-2.059-1.616   c-31.796-25.111-57-59.423-68.994-98.33c-12.555-40.352-9.847-85.647,11.914-122.406l-26.735,37.738   c-32.715,47.085-30.939,110.113-5.419,159.91C172.252,238.95,177.063,247.046,182.44,254.758z M360.5,196.506   c1.393,0.52,2.782,0.981,4.191,1.458c0.616,0.189,1.231,0.401,1.851,0.584c1.988,0.626,3.963,1.352,6.018,1.738   c93.284,18.023,118.58-47.869,125.317-57.566c-22.165,31.91-59.405,39.57-105.111,28.481c-3.605-0.881-7.572-2.185-11.058-3.416   c-4.462-1.591-8.849-3.404-13.124-5.456c-8.121-3.899-15.848-8.629-23.025-14.045c-40.891-31.029-66.291-90.221-39.61-138.425   L291.51,29.76c-19.287,28.386-21.179,63.638-7.801,94.991C297.823,158.025,326.745,184.132,360.5,196.506z">

    </path>

    </g>

  </symbol>
  <!-- Email Icon -->
  <symbol id="email" viewBox="0 0 32 32">
    <title>1-Email</title>
    <path d="M29,4H3A3,3,0,0,0,0,7V25a3,3,0,0,0,3,3H29a3,3,0,0,0,3-3V7A3,3,0,0,0,29,4Zm-.72,2L16,14.77,3.72,6ZM30,25a1,1,0,0,1-1,1H3a1,1,0,0,1-1-1V7.23l13.42,9.58a1,1,0,0,0,1.16,0L30,7.23Z"/>
  </symbol>
</svg>

